# xmcd CD database file
#
# Track frame offsets:
#	150
#	20168
#	36101
#	54814
#	67161
#	84989
#	99924
#	117023
#	136163
#	151138
#	170662
#	189026
#	208079
#	225630
#	244909
#	263157
#	281457
#	302480
#	325533
#	350647
#
# Disc length: 4727 seconds
#
# Revision: 0
# Processed by: cddbd v1.5.1PL0 Copyright (c) Steve Scherf et al.
# Submitted via: CDex 1.51
#
DISCID=08127514
DTITLE=Jamey Aebersold - Vol 113 - Vocal Standards [CD1 High Voice)
DYEAR=1900
DGENRE=Jazz
TTITLE0=Body and Soul
TTITLE1=When I Fall in Love
TTITLE2=I Can't Get Started
TTITLE3=I Could Write a Book (slow)
TTITLE4=Embraceable You
TTITLE5=Love Is Here to Stay (slow)
TTITLE6=I Only Have Eyes for You (slow)
TTITLE7=I Didn't Know What Time It Was (slow)
TTITLE8=Dancing In The Dark (slow)
TTITLE9=I Thought About You (slow)
TTITLE10=Someone To Watch Over Me
TTITLE11=Where Or When (slow)
TTITLE12=I Could Write a Book (fast)
TTITLE13=Love is Here to Stay (fast)
TTITLE14=I Only Have Eyes for You (fast)
TTITLE15=I Didn't Know What Time it Was (fast)
TTITLE16=Dancing In The Dark (fast)
TTITLE17=I Thought About You (fast)
TTITLE18=Where or When (fast)
TTITLE19=Tuning Notes
EXTD=
EXTT0=
EXTT1=
EXTT2=
EXTT3=
EXTT4=
EXTT5=
EXTT6=
EXTT7=
EXTT8=
EXTT9=
EXTT10=
EXTT11=
EXTT12=
EXTT13=
EXTT14=
EXTT15=
EXTT16=
EXTT17=
EXTT18=
EXTT19=
PLAYORDER=
